PathFileType	4	(X/Y/Z)	 s04c0301.trc
DataRate	CameraRate	NumFrames	NumMarkers	Units	OrigDataRate	OrigDataStartFrame	OrigNumFrames
200	200	4	50	mm	200	501	2000
Frame#	Time	racr			lacr			c7			jug			rlel			rdr			llel			ldr			s2			lic			ric			lasi			rasi			rpsi			lpsi			rgt			lgt			rth1			rth2			rth3			rth4			rlfc			rmfc			rsh1			rsh2			rsh3			rsh4			rlmal			rmmal			rcal			rtoe			rmt5			lth1			lth2			lth4			lth3			llfc			lmfc			lsh1			lsh2			lsh3			lsh4			llmal			lmmal			lcal			ltoe			lmt5			SBIKE			LBIKE			RBIKE			
		X1	Y1	Z1	X2	Y2	Z2	X3	Y3	Z3	X4	Y4	Z4	X5	Y5	Z5	X6	Y6	Z6	X7	Y7	Z7	X8	Y8	Z8	X9	Y9	Z9	X10	Y10	Z10	X11	Y11	Z11	X12	Y12	Z12	X13	Y13	Z13	X14	Y14	Z14	X15	Y15	Z15	X16	Y16	Z16	X17	Y17	Z17	X18	Y18	Z18	X19	Y19	Z19	X20	Y20	Z20	X21	Y21	Z21	X22	Y22	Z22	X23	Y23	Z23	X24	Y24	Z24	X25	Y25	Z25	X26	Y26	Z26	X27	Y27	Z27	X28	Y28	Z28	X29	Y29	Z29	X30	Y30	Z30	X31	Y31	Z31	X32	Y32	Z32	X33	Y33	Z33	X34	Y34	Z34	X35	Y35	Z35	X36	Y36	Z36	X37	Y37	Z37	X38	Y38	Z38	X39	Y39	Z39	X40	Y40	Z40	X41	Y41	Z41	X42	Y42	Z42	X43	Y43	Z43	X44	Y44	Z44	X45	Y45	Z45	X46	Y46	Z46	X47	Y47	Z47	X48	Y48	Z48	X49	Y49	Z49	X50	Y50	Z50	
501	2.5050	756.325875	1374.141415	-125.448246	805.993731	1301.427493	-433.521125	789.282845	1420.875997	-287.317400	748.567420	1270.670894	-272.073753	567.103624	1142.985546	9.428921	706.241820	909.606323	-79.455089	570.116561	1136.387985	-543.838919	706.644230	925.948345	-448.036412	199.476087	1272.566963	-285.853929	351.224959	1230.217509	-446.944299	354.471255	1269.125033	-123.740608	378.269430	1183.366115	-397.431680	381.197161	1202.655239	-164.178949	237.025786	1313.832998	-248.258004	235.693248	1308.895223	-323.905702	296.672827	1217.413620	-98.996880	290.651879	1146.221897	-454.323128	372.028565	1074.013449	-77.552214	428.349813	1005.821383	-78.036686	447.115745	923.082569	-69.286099	456.953721	1019.261023	-96.548154	474.253098	782.077687	-76.918935	461.960500	765.133538	-191.461399	362.141229	722.695486	-62.856793	299.677455	658.861860	-84.608685	217.185873	641.211373	-101.326377	321.440234	633.099440	-103.344610	90.876380	550.979274	-121.459671	124.902592	538.893628	-201.903259	33.095246	580.196475	-170.904130	200.979765	325.740974	-148.011368	138.125580	367.823911	-100.264570	323.792153	1060.759675	-463.163788	382.722931	996.845836	-462.374234	414.466599	1014.238273	-456.855154	402.161004	910.373932	-458.339646	461.332041	757.763782	-438.828902	481.135757	733.205213	-326.176660	431.840066	634.251369	-457.416413	418.797603	550.958486	-436.813241	367.102991	478.966890	-436.658867	445.152740	543.676565	-407.743684	303.848728	346.093710	-437.148699	298.624060	346.472145	-348.316987	220.332169	334.837020	-400.706853	515.864385	267.956596	-393.724143	441.929379	247.482950	-458.905161	-176.652266	938.863123	-280.511017	-3.272268	85.388006	-484.781920	-14.995780	80.446847	-84.368225	
502	2.5100	755.834558	1374.450668	-124.469763	806.262702	1301.820073	-432.364467	789.253215	1421.037282	-286.416371	748.848906	1270.758354	-270.876698	567.112888	1142.683800	9.787806	706.361364	909.515217	-79.634010	571.576205	1136.257436	-544.598663	706.872167	925.256918	-447.941454	199.910846	1270.442917	-287.111903	352.431409	1227.091742	-447.557836	354.673014	1269.290634	-124.772589	379.055622	1180.362707	-397.587427	381.779214	1202.631410	-164.478522	237.324909	1312.176412	-249.989496	236.185456	1306.403957	-325.649468	297.503047	1217.413254	-99.500994	290.815797	1143.005661	-454.361006	374.187140	1075.046496	-76.913825	431.559835	1007.809849	-77.057595	451.666188	925.313258	-67.913985	459.992100	1021.663748	-95.506037	480.791756	785.023662	-75.322027	470.436497	767.925155	-189.695702	368.564798	726.634767	-61.532740	305.610762	663.566562	-83.534318	222.928435	647.204105	-100.117682	327.069750	637.754420	-102.508124	95.547374	558.425356	-121.036849	129.583553	546.161157	-201.392310	37.911177	588.070352	-170.595436	204.443247	332.690798	-147.973582	141.844367	375.088510	-100.095002	322.525200	1057.261248	-463.535872	380.433186	992.425130	-463.140604	412.440957	1009.306267	-457.785852	398.470996	905.627440	-459.125612	455.807675	751.910432	-439.881637	476.078564	727.389043	-327.238259	426.727088	628.082695	-458.327950	414.318364	544.744361	-437.533125	363.132942	472.349868	-437.260698	440.873655	537.435157	-408.454058	301.000435	338.987661	-437.405588	295.754393	339.650705	-348.624014	217.520477	328.366497	-400.869964	512.651551	259.669466	-393.778290	438.566219	239.665330	-458.959734	-176.659124	938.877719	-280.559720	-3.266508	85.384017	-484.774648	-14.988211	80.442337	-84.350956	
503	2.5150	755.409419	1374.775927	-123.431223	806.450985	1302.488823	-431.228998	789.195417	1421.369094	-285.358234	749.197630	1270.964111	-269.577879	567.113012	1142.450329	10.173787	706.449689	909.507744	-79.770664	573.113446	1136.334872	-545.625341	707.356837	925.065946	-449.751042	200.391244	1268.421019	-288.334830	353.687766	1224.058158	-448.240711	354.940876	1269.188969	-126.475752	380.192827	1177.666322	-397.748922	382.325347	1202.724948	-164.758259	237.506568	1310.605793	-251.558749	236.677672	1303.978070	-327.229470	298.288314	1217.480243	-100.064952	290.997098	1139.783961	-454.390545	376.344515	1076.410577	-76.356217	434.846920	1009.992206	-76.181446	456.256090	927.933152	-66.735422	463.095765	1024.280005	-94.694012	487.385516	788.325275	-73.885512	476.911577	770.985951	-188.485948	375.315960	730.632112	-60.251985	311.668585	668.446927	-82.540992	228.498846	652.889566	-98.854293	332.267154	642.499176	-101.954565	100.594906	565.795162	-120.632092	134.607742	553.405076	-200.957702	43.061915	595.771430	-170.238607	208.336734	339.664879	-147.885975	145.954609	382.305757	-99.969562	321.196867	1053.811785	-463.947765	377.978482	988.050159	-463.909506	410.333626	1004.438121	-458.786973	394.549773	900.988205	-459.882405	450.337895	746.427050	-441.148342	470.638671	721.757016	-328.560547	421.413064	622.055468	-459.191052	409.631058	538.740580	-438.352020	358.839239	465.988128	-437.891775	436.291896	531.547372	-409.294123	297.894453	332.085854	-437.638116	292.600357	333.052636	-348.920832	214.377421	322.146308	-401.090410	509.038072	251.405323	-393.854870	434.845810	231.860334	-458.989742	-176.652634	938.873680	-280.561693	-3.261745	85.382205	-484.778893	-14.981609	80.428438	-84.362279	
504	2.5200	755.050643	1375.242416	-122.266187	806.604281	1303.324628	-430.092255	789.144580	1421.809057	-284.454759	749.503226	1271.163840	-268.346944	567.156575	1142.266396	10.641049	706.521410	909.554312	-79.931158	574.935598	1136.553703	-546.788286	707.836236	924.945111	-451.665456	200.900517	1266.429186	-289.531165	354.943632	1221.337645	-448.856368	354.754462	1269.654424	-127.558413	381.416851	1174.826748	-397.652785	382.839940	1202.959969	-164.894954	237.747573	1309.185776	-253.202777	237.179275	1301.602492	-328.880109	299.271049	1217.777958	-100.401344	291.248327	1136.537756	-453.848636	378.650644	1077.822681	-75.949383	438.236645	1012.399865	-75.502685	461.016452	930.815839	-65.658766	466.266202	1027.146214	-94.070339	494.109956	791.888454	-72.479140	484.224480	774.335737	-187.183786	382.068620	734.929574	-59.078072	317.921430	673.280334	-81.562144	234.545582	658.648863	-97.861142	338.301714	647.316438	-101.220764	105.877673	572.969670	-120.255875	139.878788	560.456459	-200.493285	48.453632	603.355496	-169.805916	212.576188	346.476122	-147.792872	150.341051	389.344614	-99.847806	319.758785	1050.593618	-464.326829	375.447429	983.808332	-464.675362	408.075532	999.625937	-459.914689	390.632297	896.491119	-460.718492	444.918317	741.233051	-442.455621	465.036378	716.251772	-329.890556	415.834529	616.168702	-460.061667	404.629429	532.767417	-439.144449	354.265064	459.805247	-438.530911	431.449637	525.831054	-410.200645	294.360804	325.467888	-437.904678	288.928271	326.685646	-349.384047	210.905885	316.153231	-401.269557	505.072124	243.320793	-393.922075	430.743783	224.215815	-459.033956	-176.638187	938.844758	-280.542972	-3.255706	85.378019	-484.785472	-14.975588	80.456930	-84.343024	
